<svg xmlns="http://www.w3.org/2000/svg" viewBox="0 0 336.8 338.1" xmlns:xlink="http://www.w3.org/1999/xlink"><defs><path d="M-817 201a111 111 0 0 0-110 128c8-43 54-76 110-76s102 33 110 76l1-17c0-61-50-111-111-111z" style="fill:#b40c0c;fill-opacity:1;stroke:#b50000;stroke-width:4.32846594" id="d"/><path d="M-903 384a111 111 0 0 0 171 0c-22 18-52 30-85 30s-63-12-86-30z" style="fill:#c40707;fill-opacity:1;stroke:#b50000;stroke-width:4.32846594" id="e"/><path d="M-817 181a132 132 0 1 0 64 246c-16 7-34 11-53 11-72 0-131-56-131-124s59-123 131-123c27 0 53 7 74 21-23-20-53-31-85-31z" style="opacity:.67880004;fill:#d15b5b;fill-opacity:1;stroke:#b50000;stroke-width:4.32846594" id="f"/></defs><defs><clipPath clipPathUnits="userSpaceOnUse" id="a"><circle r="2207.3" cy="3462.9" cx="-19371.8" style="fill:#b20604;fill-opacity:.98823529;stroke:none;stroke-width:4.04476595"/></clipPath><clipPath clipPathUnits="userSpaceOnUse" id="c"><circle r="545.7" cy="-176.2" cx="-1754.3" transform="translate(160 432) scale(.80699)" style="fill:#840000;fill-opacity:1;stroke:#2b0000;stroke-width:4;stroke-miterlimit:4;stroke-dasharray:none;stroke-dashoffset:0"/></clipPath><pattern patternUnits="userSpaceOnUse" width="946" height="981.1" patternTransform="translate(-1742 -220)" id="b"><path d="M490 165c22 9 45-22 70-20 32 2 88 6 90 39 1 27-45 37-72 41-34 5-69-12-101-24-20-8-43-13-57-29-12-12-22-30-20-47 2-29 22-56 44-74 34-30 81-47 126-50 51-4 110 4 150 37 40 32 65 87 67 138 1 26-13 51-27 72-19 27-45 52-76 63-23 7-48 0-72-3-15-2-30-9-45-12-27-4-53-4-80-5h-95c-22 0-47 8-68 0-20-8-33-28-49-43-14-14-30-27-43-43-28-35-87-71-74-114 10-32 60-46 92-37 44 11 52 75 85 105 27 24 58 41 89 57 31 17 63 34 97 43 44 12 93 26 137 15 17-5 33-15 43-29 11-16 20-38 14-57-9-32-43-53-74-66-28-12-61-10-91-6-19 3-35 14-52 20-7 3-17 2-20 9-2 7 5 17 12 20zm14 187c-16 1-31 8-47 6-13-2-31-4-38-16-5-7-4-20 3-26 14-12 37 1 56 2 20 1 41 0 60 7 13 5 38 8 36 21-3 15-29 5-44 6h-26z" style="fill:#ea412a;fill-opacity:1;stroke:none"/><path d="M742 299c15 16 45-12 59-28 16-18 33-45 25-67-4-11-19-21-29-18-16 6-12 31-19 46l-14 30c-6 13-31 27-22 37z" style="fill:#ea412a;fill-opacity:1;stroke:none"/><path d="M124 98c43-24 56 83 86 123 25 32 44 72 77 94 34 22 76 25 115 34 52 13 105 30 158 29 30-1 58-12 87-20 28-9 55-21 83-32 35-12 72-19 104-37 28-16 53-85 74-61 25 28-51 55-81 79-27 21-63 32-87 57-15 14-16 41-34 51-21 11-48-4-72 0-36 7-66 34-102 40-55 8-114 7-167-11-24-9-39-32-62-43-17-8-40-4-55-16-28-24-39-63-47-99-5-18 4-37-1-54-9-26-34-42-47-66-12-21-51-56-29-68z" style="fill:#f11212;fill-opacity:1;stroke:none"/><path d="M935 361c-21-37-76 36-115 51-52 21-109 31-159 56-16 8-28 23-44 28-32 11-68-5-99 6-15 6-42 13-40 29 3 19 38 16 57 17 25 1 52-1 73-13 8-4 23-12 19-20-10-21-64 28-69 6-3-15 27-12 42-15 12-2 27-8 37-1 6 5 10 15 7 23-4 12-20 15-32 20-18 7-39 10-60 11-25 2-51 4-75-3-10-2-21-7-27-15-6-7-11-18-8-26 5-11 21-13 32-19 8-4 28-1 26-10-3-12-25 6-38 3-13-2-22-16-35-18-30-4-58 15-87 18-15 2-30 5-43 0-22-8-37-29-52-47-14-17-23-39-37-57-5-7-13-11-17-19-15-27-9-63-26-90-10-16-22-37-41-38-22-2-55 16-54 38 0 22 39 21 54 36 9 9 16 21 20 33 9 30-10 65 3 93 9 20 30 31 47 44 23 17 52 25 73 44 13 12 15 34 30 43 44 26 101 15 153 17 51 3 102 0 152-1 23-1 47 4 69-3 24-8 43-27 63-43 41-31 82-64 120-100 19-18 34-39 53-57 9-8 34-11 28-21z" style="fill:#ea412a;fill-opacity:1;stroke:none"/><path d="M258 429c12-10 20 24 34 31 13 7 46-4 44 11-2 16-35 6-49-2-15-8-41-30-29-40z" style="fill:#ea412a;fill-opacity:1;stroke:none"/><path d="M398 629c41-1 78-22 118-28 32-4 76-29 97-5 3 4 0 10-3 13-13 14-36 10-54 16-29 9-56 26-85 33a470 470 0 0 1-152 9c-23-3-45-10-66-19-30-13-62-26-85-50-18-18-26-45-39-67-14-26-26-54-43-78-24-34-100-54-84-93 8-19 44-13 63-4 23 11 32 40 44 63 11 20 12 46 25 65 18 24 44 40 68 57 28 19 59 35 90 50 22 11 44 22 67 30 12 4 26 8 39 8z" style="fill:#f11212;fill-opacity:1;stroke:none"/><path d="M19 489c-1-9 4-22 12-24 26-6 44 31 63 50 15 14 32 28 40 47 5 10 14 26 6 31-13 8-26-14-36-24-9-10-11-26-21-35-13-13-33-16-47-27-6-5-15-9-17-18z" style="fill:#f11212;fill-opacity:1;stroke:none"/><path d="M102 592c25-13 47 32 73 45 43 21 88 39 134 49 33 8 67 11 101 10 15 0 30-3 44-7 39-10 75-28 113-42 34-13 68-30 104-38 12-2 26 3 38-2 88-33 135-217 220-177 11 4 6 23 1 33-11 24-44 30-64 46-44 37-78 85-125 118-18 12-44 12-59 28-6 6-14 16-11 24 2 8 12 11 20 12 16 3 32-6 48-12 23-8 45-21 67-32 6-3 13-14 18-9 10 8-3 25-11 34-14 19-37 32-60 41-26 9-55 7-82 7-37-1-73-11-109-15-24-2-48-5-72-5-18 1-35 3-52 7-21 6-38 20-59 25s-43 5-65 4c-15-1-30-2-44-6-55-19-112-43-152-85-9-10-14-23-17-37-1-5-4-13 1-16z" style="fill:#ea412a;fill-opacity:1;stroke:none"/><path d="M742 655c-5-9 8-20 16-27 24-24 62-28 87-51 10-10 15-25 25-36 15-17 28-40 50-44 9-1 24 2 26 10 4 20-30 29-43 44-10 11-22 22-27 36-3 8 0 17-1 26-2 14-4 29-9 43-5 12-9 26-19 34-8 6-19 14-28 9-7-4-6-15-7-24 0-10 5-20 6-30 2-7 9-17 3-20-16-11-30 27-49 32-10 3-26 7-30-2z" style="fill:#f11212;fill-opacity:1;stroke:none"/><path d="M472 760c-15-6-45 0-46-16 0-21 38-24 59-25 28-2 53 16 81 22 36 7 109-22 111 15 1 35-69 16-103 22-16 3-32 11-49 8-19-3-35-18-53-26z" style="fill:#ea412a;fill-opacity:1;stroke:none"/><path d="M310 775c8-29 60-9 89-5 45 6 85 36 130 40 37 5 75-4 112-9 18-2 47-25 54-8 5 13-21 20-34 25-22 7-47 0-70 1-27 0-55 3-82 1-24-3-47-11-71-16l-48-6c-21-3-42-3-62-11-6-2-20-5-18-12z" style="fill:#f11212;fill-opacity:1;stroke:none"/><path d="M31 626c31-26 70 39 102 63 29 22 52 52 81 73 25 18 51 33 79 44 48 20 99 30 151 38 37 5 76 13 113 6 50-10 93-44 138-68 38-20 75-40 110-63 44-29 80-123 124-95 26 15 2 63-16 86-23 30-68 31-102 49-27 15-52 35-81 47-38 16-81 17-120 32-41 15-73 54-117 58-29 3-58-13-86-22-60-19-123-36-178-69-33-20-56-55-88-76-26-17-63-16-84-39-16-17-43-50-26-64z" style="fill:#ea412a;fill-opacity:1;stroke:none"/><path d="M479 910c-2-24 50-6 74-13 28-8 55-18 80-33 17-9 27-29 45-34 30-10 63 9 94 5 19-3 41-32 55-18 10 8 0 28-10 37-23 21-62 9-93 16-33 8-65 22-99 29-30 7-62 11-94 13-17 0-51 16-52-2z" style="fill:#d60707;fill-opacity:1;stroke:none"/><path d="M95 774c25-28 67 35 100 54 30 17 53 47 87 53 12 2 24-7 36-7 14 0 29 2 42 7 16 6 27 20 42 28 10 6 20 11 30 14 42 11 87 26 129 17 15-3 24-20 39-24 21-6 44 4 65 0 32-7 58-37 91-39 29-1 88-3 85 26-4 32-65-2-95 6-41 11-72 45-113 57-39 12-81 14-122 14-58 1-118 4-173-14-50-17-91-52-133-84-34-26-68-54-96-87-5-6-20-15-14-21z" style="fill:#d70707;fill-opacity:1;stroke:none"/><path style="fill:#f11313;fill-opacity:1;stroke:none" d="M638 261c10 11 29-8 38-18 10-11 21-28 16-43-3-6-12-13-19-11-10 4-8 20-12 30l-9 19c-4 8-20 17-14 23z"/></pattern><filter style="color-interpolation-filters:sRGB" id="g" x="-.5" width="2" y="-.5" height="2"><feGaussianBlur stdDeviation="338"/></filter></defs><g transform="translate(1660 -97) scale(.07694)" clip-path="url(#a)"><circle style="fill:#b20604;fill-opacity:.98823529;stroke:none;stroke-width:3.96702123" cx="-19405.7" cy="3418.1" r="2164.9"/><circle style="fill:#8b0000;fill-opacity:.98823529;stroke:none;stroke-width:3.88719726" cx="-19405.7" cy="3418.1" r="2121.3"/><circle style="fill:#e40000;fill-opacity:1;stroke:none;stroke-width:3.86667609" cx="-19405.7" cy="3418.1" r="2110.1"/><path style="fill:url(#b);stroke:none" clip-path="url(#c)" transform="translate(-13391 2031) scale(4.79148)" d="M-1742-220h946v981h-946z"/><g transform="matrix(2.80754 -1.08272 1.49043 3.35337 -18902 2270)" style="stroke:#b50000;stroke-width:4.32846594"><circle style="fill:#d00c0c;fill-opacity:1;stroke:#b50000;stroke-width:3.35663533" transform="translate(531 9) scale(1.28953)" cx="-1045.7" cy="235.2" r="102.9"/><circle transform="translate(316 58) scale(1.08333)" style="fill:#d50d0d;fill-opacity:1;stroke:#b50000;stroke-width:3.99550724" cx="-1045.7" cy="235.2" r="102.9"/><use style="fill:#b40c0c;fill-opacity:1;stroke:#b50000;stroke-width:4.32846594" xlink:href="#d"/><use style="fill:#c40707;fill-opacity:1;stroke:#b50000;stroke-width:4.32846594" xlink:href="#e"/><use style="opacity:.67880004;fill:#d15b5b;fill-opacity:1;stroke:#b50000;stroke-width:4.32846594" xlink:href="#f"/></g><g style="stroke:#b50000;stroke-width:4.32846594" transform="matrix(-.73778 1.52105 -2.0719 -.72839 -19883 6708)"><circle transform="translate(531 9) scale(1.28953)" style="fill:#d00c0c;fill-opacity:1;stroke:#b50000;stroke-width:3.35663533" cx="-1045.7" cy="235.2" r="102.9"/><circle style="fill:#d50d0d;fill-opacity:1;stroke:#b50000;stroke-width:3.99550724" transform="translate(316 58) scale(1.08333)" cx="-1045.7" cy="235.2" r="102.9"/><use style="fill:#b40c0c;fill-opacity:1;stroke:#b50000;stroke-width:4.32846594" xlink:href="#d"/><use style="fill:#c40707;fill-opacity:1;stroke:#b50000;stroke-width:4.32846594" xlink:href="#e"/><use style="opacity:.67880004;fill:#d15b5b;fill-opacity:1;stroke:#b50000;stroke-width:4.32846594" xlink:href="#f"/></g><g style="stroke:#b50000;stroke-width:4.32846594" transform="matrix(1.29053 -.03283 .1189 1.56986 -19055 3501)"><circle transform="translate(531 9) scale(1.28953)" style="fill:#d00c0c;fill-opacity:1;stroke:#b50000;stroke-width:3.35663533" cx="-1045.7" cy="235.2" r="102.9"/><circle style="fill:#d50d0d;fill-opacity:1;stroke:#b50000;stroke-width:3.99550724" transform="translate(316 58) scale(1.08333)" cx="-1045.7" cy="235.2" r="102.9"/><use style="fill:#b40c0c;fill-opacity:1;stroke:#b50000;stroke-width:4.32846594" xlink:href="#d"/><use style="fill:#c40707;fill-opacity:1;stroke:#b50000;stroke-width:4.32846594" xlink:href="#e"/><use style="opacity:.67880004;fill:#d15b5b;fill-opacity:1;stroke:#b50000;stroke-width:4.32846594" xlink:href="#f"/></g><g transform="matrix(.96975 .26025 -.25769 1.19707 -19819 3315)" style="stroke:#b50000;stroke-width:4.32846594"><circle style="fill:#d00c0c;fill-opacity:1;stroke:#b50000;stroke-width:3.35663533" transform="translate(531 9) scale(1.28953)" cx="-1045.7" cy="235.2" r="102.9"/><circle transform="translate(316 58) scale(1.08333)" style="fill:#d50d0d;fill-opacity:1;stroke:#b50000;stroke-width:3.99550724" cx="-1045.7" cy="235.2" r="102.9"/><use style="fill:#b40c0c;fill-opacity:1;stroke:#b50000;stroke-width:4.32846594" xlink:href="#d"/><use style="fill:#c40707;fill-opacity:1;stroke:#b50000;stroke-width:4.32846594" xlink:href="#e"/><use style="opacity:.67880004;fill:#d15b5b;fill-opacity:1;stroke:#b50000;stroke-width:4.32846594" xlink:href="#f"/></g><g style="stroke:#b50000;stroke-width:4.32846594" transform="matrix(1.70336 -1.36276 1.764 1.99136 -17412 569)"><circle transform="translate(531 9) scale(1.28953)" style="fill:#d00c0c;fill-opacity:1;stroke:#b50000;stroke-width:3.35663533" cx="-1045.7" cy="235.2" r="102.9"/><circle style="fill:#d50d0d;fill-opacity:1;stroke:#b50000;stroke-width:3.99550724" transform="translate(316 58) scale(1.08333)" cx="-1045.7" cy="235.2" r="102.9"/><use style="fill:#b40c0c;fill-opacity:1;stroke:#b50000;stroke-width:4.32846594" xlink:href="#d"/><use style="fill:#c40707;fill-opacity:1;stroke:#b50000;stroke-width:4.32846594" xlink:href="#e"/><use style="opacity:.67880004;fill:#d15b5b;fill-opacity:1;stroke:#b50000;stroke-width:4.32846594" xlink:href="#f"/></g><g transform="matrix(-2.34965 -1.87981 -2.4333 2.74692 -21726 -99)" style="stroke:#b50000;stroke-width:4.32846594"><circle style="fill:#d00c0c;fill-opacity:1;stroke:#b50000;stroke-width:3.35663533" transform="translate(531 9) scale(1.28953)" cx="-1045.7" cy="235.2" r="102.9"/><circle transform="translate(316 58) scale(1.08333)" style="fill:#d50d0d;fill-opacity:1;stroke:#b50000;stroke-width:3.99550724" cx="-1045.7" cy="235.2" r="102.9"/><use style="fill:#b40c0c;fill-opacity:1;stroke:#b50000;stroke-width:4.32846594" xlink:href="#d"/><use style="fill:#c40707;fill-opacity:1;stroke:#b50000;stroke-width:4.32846594" xlink:href="#e"/><use style="opacity:.67880004;fill:#d15b5b;fill-opacity:1;stroke:#b50000;stroke-width:4.32846594" xlink:href="#f"/></g><g transform="matrix(1.0547 -.8438 1.09224 1.23302 -17877 1821)" style="stroke:#b50000;stroke-width:4.32846594"><circle style="fill:#d00c0c;fill-opacity:1;stroke:#b50000;stroke-width:3.35663533" transform="translate(531 9) scale(1.28953)" cx="-1045.7" cy="235.2" r="102.9"/><circle transform="translate(316 58) scale(1.08333)" style="fill:#d50d0d;fill-opacity:1;stroke:#b50000;stroke-width:3.99550724" cx="-1045.7" cy="235.2" r="102.9"/><use style="fill:#b40c0c;fill-opacity:1;stroke:#b50000;stroke-width:4.32846594" xlink:href="#d"/><use style="fill:#c40707;fill-opacity:1;stroke:#b50000;stroke-width:4.32846594" xlink:href="#e"/><use style="opacity:.67880004;fill:#d15b5b;fill-opacity:1;stroke:#b50000;stroke-width:4.32846594" xlink:href="#f"/></g><g style="stroke:#b50000;stroke-width:4.32846594" transform="matrix(-1.0547 -.8438 -1.09224 1.23302 -20554 640)"><circle transform="translate(531 9) scale(1.28953)" style="fill:#d00c0c;fill-opacity:1;stroke:#b50000;stroke-width:3.35663533" cx="-1045.7" cy="235.2" r="102.9"/><circle style="fill:#d50d0d;fill-opacity:1;stroke:#b50000;stroke-width:3.99550724" transform="translate(316 58) scale(1.08333)" cx="-1045.7" cy="235.2" r="102.9"/><use style="fill:#b40c0c;fill-opacity:1;stroke:#b50000;stroke-width:4.32846594" xlink:href="#d"/><use style="fill:#c40707;fill-opacity:1;stroke:#b50000;stroke-width:4.32846594" xlink:href="#e"/><use style="opacity:.67880004;fill:#d15b5b;fill-opacity:1;stroke:#b50000;stroke-width:4.32846594" xlink:href="#f"/></g><g style="stroke:#b50000;stroke-width:4.32846594" transform="matrix(-1.67363 .27667 .08016 1.84954 -22636 2834)"><circle transform="translate(531 9) scale(1.28953)" style="fill:#d00c0c;fill-opacity:1;stroke:#b50000;stroke-width:3.35663533" cx="-1045.7" cy="235.2" r="102.9"/><circle style="fill:#d50d0d;fill-opacity:1;stroke:#b50000;stroke-width:3.99550724" transform="translate(316 58) scale(1.08333)" cx="-1045.7" cy="235.2" r="102.9"/><use style="fill:#b40c0c;fill-opacity:1;stroke:#b50000;stroke-width:4.32846594" xlink:href="#d"/><use style="fill:#c40707;fill-opacity:1;stroke:#b50000;stroke-width:4.32846594" xlink:href="#e"/><use style="opacity:.67880004;fill:#d15b5b;fill-opacity:1;stroke:#b50000;stroke-width:4.32846594" xlink:href="#f"/></g><g style="stroke:#b50000;stroke-width:4.32846594" transform="matrix(1.5015 -1.19032 1.55496 1.73938 -17395 3025)"><circle transform="translate(531 9) scale(1.28953)" style="fill:#d00c0c;fill-opacity:1;stroke:#b50000;stroke-width:3.35663533" cx="-1045.7" cy="235.2" r="102.9"/><circle style="fill:#d50d0d;fill-opacity:1;stroke:#b50000;stroke-width:3.99550724" transform="translate(316 58) scale(1.08333)" cx="-1045.7" cy="235.2" r="102.9"/><use style="fill:#b40c0c;fill-opacity:1;stroke:#b50000;stroke-width:4.32846594" xlink:href="#d"/><use style="fill:#c40707;fill-opacity:1;stroke:#b50000;stroke-width:4.32846594" xlink:href="#e"/><use style="opacity:.67880004;fill:#d15b5b;fill-opacity:1;stroke:#b50000;stroke-width:4.32846594" xlink:href="#f"/></g><path d="M-17919 1878a2165 2165 0 0 1 135 1000 2165 2165 0 0 1-2372 1936 2165 2165 0 0 1-1229-548 2165 2165 0 0 0 1800 1372 2165 2165 0 0 0 2372-1935 2165 2165 0 0 0-706-1825z" style="opacity:.41499999;fill:#4a0302;fill-opacity:.98823529;stroke:none;stroke-width:3.96702123"/><g style="stroke:#b50000;stroke-width:4.32846594" transform="matrix(-1.40496 -.1205 -.03422 2.12187 -18764 2650)"><circle transform="translate(531 9) scale(1.28953)" style="fill:#d00c0c;fill-opacity:1;stroke:#b50000;stroke-width:3.35663533" cx="-1045.7" cy="235.2" r="102.9"/><circle style="fill:#d50d0d;fill-opacity:1;stroke:#b50000;stroke-width:3.99550724" transform="translate(316 58) scale(1.08333)" cx="-1045.7" cy="235.2" r="102.9"/><use style="fill:#b40c0c;fill-opacity:1;stroke:#b50000;stroke-width:4.32846594" xlink:href="#d"/><use style="fill:#c40707;fill-opacity:1;stroke:#b50000;stroke-width:4.32846594" xlink:href="#e"/><use style="opacity:.67880004;fill:#d15b5b;fill-opacity:1;stroke:#b50000;stroke-width:4.32846594" xlink:href="#f"/></g><circle style="opacity:.32900002;fill:#fff;fill-opacity:.98823529;stroke:none;stroke-width:1.56388021;filter:url(#g)" cx="-20322.9" cy="2483.8" r="853.4"/></g></svg>