<svg xml:space="preserve" width="1066.667" height="1066.667" xmlns="http://www.w3.org/2000/svg"><defs><clipPath clipPathUnits="userSpaceOnUse" id="a"><path d="M0 800h800V0H0Z"/></clipPath></defs><g clip-path="url(#a)" transform="matrix(1.33333 0 0 -1.33333 0 1066.667)"><path d="M465.341 741.62c-2.366 1.053-5.153 3.883-7.062 7.172-2.128 3.665-3.963 5.429-5.645 5.429-1.371 0-3.504.874-4.74 1.943-1.237 1.067-4.796 2.56-7.911 3.318-6.929 1.685-31.03 1.818-35.297.196-.873-.332-2.103-1.312-3.371-2.612l68.083-26.912c1.497 6.68.359 9.497-4.057 11.466" style="fill:#abc38b;fill-opacity:1;fill-rule:nonzero;stroke:none"/><path d="M466.248 705.135c.061 9.753.755 16.397 2.256 21.579.362 1.251.659 2.391.894 3.44l-68.083 26.912a28.867 28.867 0 0 1-3.459-4.327l-3.723-5.758.866-13.877c.478-7.633.792-16.051.701-18.705-.579-16.842-.256-20.836 2.223-27.397 3.812-10.087 2.789-14.168-5.224-19.709l73.492 32.977c.029 1.424.046 3.03.057 4.865" style="fill:#c8c46c;fill-opacity:1;fill-rule:nonzero;stroke:none"/><path d="M502.261 598.681c-.011 5.741-.365 11.033-1.055 15.994l-118.594 46.338c-.429-.236-.877-.479-1.345-.73l43.257-89.914z" style="fill:#dae262;fill-opacity:1;fill-rule:nonzero;stroke:none"/><path d="M499.214 624.814c-1.497 5.783-6.674 11.674-14.684 16.71-3.466 2.178-10.73 7.337-16.141 11.463-5.411 4.126-11.046 8.147-12.521 8.937-2.447 1.31-2.611 2.028-1.887 8.2 1.167 9.928 1.784 11.657 4.609 12.943 1.405.641 3.683 2.697 5.061 4.571 1.862 2.528 2.379 4.529 2.54 12.632l-73.492-32.977c-.195-.135-.391-.271-.595-.408-3.449-2.318-5.835-3.862-9.492-5.872l118.594-46.338a90.059 90.059 0 0 1-1.992 10.139" style="fill:#afdf7b;fill-opacity:1;fill-rule:nonzero;stroke:none"/><path d="M299.953 583.469c-1.326-2.781-2.134-4.679-2.134-5.097 0-.92-1.83-3.446-4.067-5.615-2.237-2.168-5.629-7.027-7.537-10.796a64 64 0 0 0-2.553-4.506l42.802 1.284z" style="fill:#df2200;fill-opacity:1;fill-rule:nonzero;stroke:none"/><path d="M323.944 622.173c-.286-.316-.569-.629-.85-.936-5.675-6.226-10.486-13.45-16.629-24.976-2.591-4.861-4.924-9.46-6.512-12.792l26.511-24.73z" style="fill:#dc2b00;fill-opacity:1;fill-rule:nonzero;stroke:none"/><path d="M379.117 659.149c-4.646-2.418-11.293-5.683-22.391-11.103-14.78-7.216-19.667-10.21-22.289-13.647-1.73-2.268-6.313-7.603-10.493-12.226l2.52-63.434z" style="fill:#df5e00;fill-opacity:1;fill-rule:nonzero;stroke:none"/><path d="m424.524 570.369-43.257 89.914c-.669-.359-1.383-.736-2.15-1.134l-52.653-100.41z" style="fill:#e88200;fill-opacity:1;fill-rule:nonzero;stroke:none"/><path d="m496.499 522.909 6.591 20.792c-.086.18-.172.359-.255.536l-5.017 10.606 1.409 9.183c2.042 13.318 3.052 24.665 3.034 34.655l-77.737-28.312z" style="fill:#dcf07c;fill-opacity:1;fill-rule:nonzero;stroke:none"/><path d="m424.524 570.369-98.06-11.63 79.517-40.23z" style="fill:#f38900;fill-opacity:1;fill-rule:nonzero;stroke:none"/><path d="M510.792 529.658c-2.342 3.705-5.451 9.352-7.702 14.043l-6.591-20.792z" style="fill:#b7f3bb;fill-opacity:1;fill-rule:nonzero;stroke:none"/><path d="M322.951 511.411c-.914.895-1.702 2.081-2.035 2.991l-52.039 16.046c-.225-1.865-.291-3.77-.144-5.508.241-2.835 4.995-12.613 11.423-24.246l46.068 5.614c-.939 2.012-2.276 4.126-3.273 5.103M333.826 507.234l7.409.903-7.46 2.3c.025-1.138.041-2.205.051-3.203" style="fill:#ef3500;fill-opacity:1;fill-rule:nonzero;stroke:none"/><path d="M333.47 519.989c.144-3.622.246-6.793.305-9.552l7.46-2.3-8.641 29.604c.264-4.096.589-10.568.876-17.752M320.747 515.185c0 .888-.813 2.29-1.809 3.117s-1.81 2.728-1.81 4.224.814 3.396 1.81 4.224c.996.827 1.809 2.727 1.809 4.226 0 1.769 1.927 4.302 5.497 7.228 2.12 1.737 4.062 3.153 5.115 3.762l-4.895 16.773-42.802-1.284c-1.646-2.672-3.478-5.3-4.844-6.875-2.16-2.491-3.926-5.483-3.926-6.65 0-1.166-1.01-2.75-2.245-3.52-1.709-1.068-3.219-5.395-3.77-9.962l52.039-16.046c-.108.297-.169.564-.169.783" style="fill:#f43800;fill-opacity:1;fill-rule:nonzero;stroke:none"/><path d="m326.464 558.739 4.895-16.773c.449.26.74.376.81.304.096-.096.246-1.776.425-4.529l8.641-29.604 64.746 10.372z" style="fill:#f77700;fill-opacity:1;fill-rule:nonzero;stroke:none"/><path d="m496.499 522.909-71.975 47.46-18.543-51.86z" style="fill:#f2da4a;fill-opacity:1;fill-rule:nonzero;stroke:none"/><path d="M333.826 507.234c.067-6.734-.201-10.323-.814-11.38-.895-1.54-1.342-1.729-1.366-.575-.021.943-.762 2.573-1.649 3.62-.887 1.049-2.338 3.807-3.226 6.129-.159.413-.343.845-.547 1.28l-46.068-5.614c7.004-12.673 15.995-27.548 23.312-38.052 3.991-5.732 11.405-13.607 17.051-18.335l20.716 63.83z" style="fill:#fb6100;fill-opacity:1;fill-rule:nonzero;stroke:none"/><path d="M510.404 480.506c3.111-1.301 4.502-2.799 5.349-5.748.977-3.411 1.888-4.179 5.941-5.022 2.903-.604 6.476-2.642 9.072-5.177 2.354-2.299 5.508-4.181 7.005-4.181l.085-.003 8.596 30.645c-5.041 2.707-5.764 3.88-6.425 6.768-.972 4.239-5.741 9.654-8.505 9.654-1.942 0-13.709 12.227-19.279 20.033a49.276 49.276 0 0 0-1.451 2.183l-14.293-6.749z" style="fill:#d8f890;fill-opacity:1;fill-rule:nonzero;stroke:none"/><path d="M547.616 455.52c0-.646-.747-1.176-1.662-1.176-.914 0-2.274-.737-3.023-1.639-2.05-2.47 2.626-7.692 8.241-9.204 4.546-1.224 8.512-.675 8.512 1.177 0 .516 1.086 1.222 2.414 1.569 1.386.362 2.413 1.646 2.413 3.016 0 1.313 1.004 2.649 2.23 2.97 4.077 1.066 5.229 18.041 1.69 24.912-1.721 3.34-4.449 5.234-14.772 10.258-3.08 1.498-5.415 2.653-7.207 3.617l-8.596-30.645c3.33-.052 9.76-3.238 9.76-4.855" style="fill:#c5f5c1;fill-opacity:1;fill-rule:nonzero;stroke:none"/><path d="m383.352 392.475 93.208 21.634c-1.736 4.472-3.603 14.066-3.685 19.494-.042 2.862 1.33 10.094 3.05 16.072 1.748 6.079 2.81 12.132 2.408 13.734-.038.151-.103.34-.189.561l-72.163 54.539z" style="fill:#ffd100;fill-opacity:1;fill-rule:nonzero;stroke:none"/><path d="M468.336 514.941c-1.126-1.802-2.212-3.502-2.414-3.778-.199-.278-.364 1.778-.364 4.566 0 4.697.178 4.977 2.413 3.78 2.311-1.236 2.326-1.432.365-4.568m-62.355 3.568 72.163-54.539c-.83 2.093-3.782 7.162-6.999 11.97-6.124 9.148-6.501 10.156-7.062 18.899-.354 5.508-.054 10.398.742 12.117 1.874 4.042 6.254 3.732 10.161-.721 1.747-1.991 3.819-3.62 4.606-3.62.785 0 3.672-2.681 6.415-5.956 3.188-3.809 6.6-6.471 9.465-7.385 2.463-.788 5.836-2.673 7.495-4.191 1.659-1.517 4.955-3.556 7.324-4.528l.113-.049-13.905 42.403z" style="fill:#f9ed2d;fill-opacity:1;fill-rule:nonzero;stroke:none"/><path d="m341.235 508.137 42.117-115.662 22.629 126.034z" style="fill:#fd9d00;fill-opacity:1;fill-rule:nonzero;stroke:none"/><path d="m341.235 508.137-20.716-63.83c1.332-1.115 2.565-2.056 3.631-2.751.212-.139-.771-2.521-2.185-5.293-3.011-5.901-2.588-9.329 2.382-19.327 2.646-5.322 3.309-8.206 3.891-18.612l55.114-5.849z" style="fill:#ff9300;fill-opacity:1;fill-rule:nonzero;stroke:none"/><path d="M492.766 323.418c.343 3.047.547 5.891.547 8.199 0 4.035-1.136 14.375-2.525 22.977-1.93 11.957-2.215 16.32-1.207 18.533 1.902 4.174 1.634 6.881-1.017 10.25-4.616 5.867-8.698 14.965-9.375 20.888-.379 3.318-1.281 7.119-2.002 8.446-.206.377-.416.851-.627 1.398l-93.208-21.634z" style="fill:#ffce00;fill-opacity:1;fill-rule:nonzero;stroke:none"/><path d="M316.712 315.215a48.5 48.5 0 0 1-2.915-6.953l4.181-3.477z" style="fill:#fb6800;fill-opacity:1;fill-rule:nonzero;stroke:none"/><path d="m492.766 323.418-109.414 69.057 33.315-131.063 3.116 2.229c-.54 4.931-1.309 9.92-2.287 14.519-3.23 15.192-4.774 27.697-5.593 45.252-.62 13.305-.53 14.188 1.097 10.861 5.199-10.628 9.318-21.877 9.943-27.154.713-6.021 2.804-9.053 6.786-9.83 2.584-.504 6.056-10.043 8.491-20.459l53.317 38.143c.496 2.82.92 5.713 1.229 8.445" style="fill:#feb200;fill-opacity:1;fill-rule:nonzero;stroke:none"/><path d="M313.797 308.262c-.059-.18-.117-.358-.173-.537-.288-.916-.728-2.137-1.285-3.58l5.639.64z" style="fill:#f35c00;fill-opacity:1;fill-rule:nonzero;stroke:none"/><path d="M328.238 398.324c.044-.793.088-1.623.133-2.508.805-16.105 4.054-36.341 8.622-53.699a166.904 166.904 0 0 0 2.105-9.002l44.254 59.36zM331.796 323.32l-.262-.002c-7.777-.086-8.806-.398-11.883-3.621-.898-.939-1.934-2.547-2.939-4.482l1.266-10.43z" style="fill:#ff8500;fill-opacity:1;fill-rule:nonzero;stroke:none"/><path d="m416.667 261.412-33.315 131.063-44.254-59.36c.569-2.806.926-5.068.931-6.082l.021-3.621-8.254-.092-13.818-18.535z" style="fill:#fe9400;fill-opacity:1;fill-rule:nonzero;stroke:none"/><path d="M312.339 304.145c-1.584-4.108-4.123-10.049-6.892-16.133l12.531 16.773z" style="fill:#f04f00;fill-opacity:1;fill-rule:nonzero;stroke:none"/><path d="M305.447 288.012a417.552 417.552 0 0 0-3.655-7.824c-8.299-17.272-9.228-19.938-9.745-28.008-.708-11.026 1.027-18.233 6.414-26.655 4.088-6.39 4.252-6.496 9.994-6.496 4.517 0 6.399.614 8.314 2.715.327.358.666.758 1.013 1.184l.196 81.857z" style="fill:#f64e00;fill-opacity:1;fill-rule:nonzero;stroke:none"/><path d="M420.229 258.941a164.251 164.251 0 0 1-.446 4.7l-3.116-2.229zM483.215 236.23c1.072 4.485 1.631 9.75 1.24 11.704-.403 2.017.36 7.615 1.771 12.966 2.295 8.717 2.368 10.358.981 22.125-1.32 11.2-1.268 13.207.435 16.895 1.342 2.906 2.796 8.795 3.895 15.053L438.22 276.83c2.392-10.236 3.784-21.318 2.347-25.504-.346-1.01-.746-3.103-1.12-5.719l39.953-27.72c.973 5.582 2.289 11.967 3.815 18.343" style="fill:#ffa300;fill-opacity:1;fill-rule:nonzero;stroke:none"/><path d="m317.978 304.785-.196-81.857c5.882 7.207 14.396 23.455 15.653 30.152l.836 4.455 2.681-3.264c1.476-1.794 4.736-6.392 7.244-10.218 5.624-8.573 12.58-14.658 19.874-17.385 3.053-1.141 6.676-3.25 8.051-4.688.051-.052.111-.105.165-.16l44.381 39.592z" style="fill:#fd7700;fill-opacity:1;fill-rule:nonzero;stroke:none"/><path d="M475.646 194.484c1.245 3.987 1.979 7.051 1.979 8.61 0 3.054.661 8.396 1.775 14.793l-39.953 27.72a148.418 148.418 0 0 1-1.067-10.183c-.52-7.479-1.706-14.002-3.164-17.403-6.403-14.937-9.296-25.521-10.15-37.521l1.031-9.92zM419.381 235.27c.052.15.107.304.15.451 1.315 4.463 1.489 13.431.698 23.22l-3.562 2.471z" style="fill:#f80;fill-opacity:1;fill-rule:nonzero;stroke:none"/><path d="M425.066 180.5a109.937 109.937 0 0 1-.175-3.104 137.629 137.629 0 0 0-.44-6.779l1.646-.037zM372.286 221.82c4.06-3.974 17.592-8.021 23.849-7.084 7.577 1.137 20.577 12.694 23.246 20.534l-2.714 26.142z" style="fill:#fd7400;fill-opacity:1;fill-rule:nonzero;stroke:none"/><path d="m426.097 170.58-1.646.037c-.547-5.99-1.487-10.803-2.995-15.547-1.58-4.976-3.759-13.123-4.84-18.101-1.241-5.721-3.76-12.114-6.844-17.379-.985-1.684-2.036-3.74-3.029-5.883l8.982-5.988z" style="fill:#fa6200;fill-opacity:1;fill-rule:nonzero;stroke:none"/><path d="m483.928 97.662 5.949 46.242c-7.735 2.631-16.445 3.227-25.651 1.491-4.584-.866-8.638-1.27-9.009-.901-.372.373 1.304 4.604 3.721 9.406 6.422 12.752 13.386 29.954 16.708 40.584l-49.549-23.904Z" style="fill:#ff7200;fill-opacity:1;fill-rule:nonzero;stroke:none"/><path d="M518.23 115.072c-5.253 14.377-15.446 24.442-28.353 28.832l-5.949-46.242z" style="fill:#fc6300;fill-opacity:1;fill-rule:nonzero;stroke:none"/><path d="M520.074 97.582c.613 5.223.443 10.184-.702 14.037a58.406 58.406 0 0 1-1.142 3.453l-34.302-17.41z" style="fill:#f23700;fill-opacity:1;fill-rule:nonzero;stroke:none"/><path d="m426.097 170.58-10.372-62.861 68.203-10.057Z" style="fill:#fa6800;fill-opacity:1;fill-rule:nonzero;stroke:none"/><path d="M406.743 113.707a93.156 93.156 0 0 1-2.104-4.894l11.086-1.094z" style="fill:#f64d00;fill-opacity:1;fill-rule:nonzero;stroke:none"/><path d="M488.091 65.484c17.333 1.983 19.764 3.159 22.8 7.137 4.761 6.244 8.131 15.99 9.183 24.961l-36.146.08z" style="fill:#f24600;fill-opacity:1;fill-rule:nonzero;stroke:none"/><path d="M403.712 71.809c4.22-.838 13.66-1.623 21.585-1.815l-9.572 37.725-19.801-32.705c.774-1.785 3.157-2.284 7.788-3.205" style="fill:#e94c00;fill-opacity:1;fill-rule:nonzero;stroke:none"/><path d="M404.639 108.813c-.808-2.04-1.479-3.963-1.898-5.514a790.097 790.097 0 0 0-4.664-16.383c-2.004-6.721-2.97-10.023-2.153-11.902l19.801 32.705z" style="fill:#ed4100;fill-opacity:1;fill-rule:nonzero;stroke:none"/><path d="m415.725 107.719 9.572-37.725c.487-.012.971-.021 1.445-.027l14.888-.225 3.795-3.795c3.542-3.543 4.182-4.252 16.489-3.152l22.014 34.867z" style="fill:#f55e00;fill-opacity:1;fill-rule:nonzero;stroke:none"/><path d="M461.914 62.795c3.115.277 6.977.672 11.823 1.166 5.682.578 10.404 1.072 14.354 1.523l-4.163 32.178z" style="fill:#f15700;fill-opacity:1;fill-rule:nonzero;stroke:none"/></g></svg>